<svg xmlns="http://www.w3.org/2000/svg" viewBox="0 0 1000 120" width="1000" height="120">
  <!-- GR Box -->
  <path d="M 10 100 L 40 10 L 110 10 L 80 100 Z" fill="#000000" />
  <path d="M 110 10 L 160 10 L 130 100 L 80 100 Z" fill="#EB0A1E" />
  
  <!-- G -->
  <path d="M 70 30 C 40 30 25 50 20 70 C 15 90 30 95 50 95 C 70 95 85 85 90 70 L 65 70 C 60 75 55 75 50 75 C 40 75 35 65 40 55 C 45 45 55 45 65 45 L 70 45 L 65 60 L 90 60 C 95 40 85 30 70 30 Z" fill="#FFFFFF" />
  
  <!-- R -->
  <path d="M 95 30 L 135 30 C 155 30 160 40 155 55 C 150 70 135 70 125 70 L 135 95 L 105 95 L 95 70 L 90 70 L 80 95 L 55 95 L 95 30 Z M 105 45 L 100 55 L 115 55 C 125 55 130 50 130 45 C 130 40 125 45 105 45 Z" fill="#FFFFFF" />

  <!-- TOYOTA GAZOO Racing -->
  <text x="180" y="85" font-family="Arial, Helvetica, sans-serif" font-weight="900" font-size="65" font-style="italic" fill="#000000" letter-spacing="-1">
    TOYOTA GAZOO <tspan fill="#EB0A1E">R</tspan>acing
  </text>
</svg>
